<?xml version="1.0" encoding="UTF-8" standalone="no"?>
<svg width="64px" height="64px" viewBox="0 0 64 64" version="1.1" xmlns="http://www.w3.org/2000/svg" xmlns:xlink="http://www.w3.org/1999/xlink">
    <!-- Generator: Sketch 3.7.1 (28215) - http://www.bohemiancoding.com/sketch -->
    <title>tocky</title>
    <desc>Created with Sketch.</desc>
    <defs></defs>
    <g id="Page-1" stroke="none" stroke-width="1" fill="none" fill-rule="evenodd">
        <g id="tocky" fill="#FFFFFF">
            <path d="M6,4.99531509 L6,4.99531509 L6,59.0046849 C6,58.4480359 5.55219873,58 4.99531509,58 L59.0046849,58 C58.4480359,58 58,58.4478013 58,59.0046849 L58,4.99531509 C58,5.55196413 58.4478013,6 59.0046849,6 L4.99531509,6 C5.55196413,6 6,5.55219873 6,4.99531509 L6,4.99531509 Z M0,4.99531509 C0,2.23647875 2.2402674,0 4.99531509,0 L59.0046849,0 C61.7635213,0 64,2.2402674 64,4.99531509 L64,59.0046849 C64,61.7635213 61.7597326,64 59.0046849,64 L4.99531509,64 C2.23647875,64 0,61.7597326 0,59.0046849 L0,4.99531509 L0,4.99531509 Z" id="Rectangle-1"></path>
            <polygon id="T" points="19.74 19.96 19.74 12.7 45.26 12.7 45.26 19.96 36.636 19.96 36.636 49 28.364 49 28.364 19.96"></polygon>
        </g>
    </g>
</svg>